# File created by Blade
# Date/Time:  Thu Jan 22 19:18:24 2015
#---------------------------------------------------------
:version 1.10
:name HOM
:units
  mass 1.0
  length 1.000000
  angle deg
:documentation
     Acclaim Skeleton File
:root
   axis xyz
   order TX TY TZ RX RY RZ
   position 0.000000 0.000000 0.000000
   orientation 0 0 0
:bonedata
   begin
      id 1
      name RightUpLeg_dum
      direction -1.000000 0.000000 0.000000
      length 4.478084
      axis 0.0 0.0 0.0 xyz
   end
   begin
      id 2
      name LeftUpLeg_dum
      direction 1.000000 0.000000 0.000000
      length 4.478084
      axis 0.0 0.0 0.0 xyz
   end
   begin
      id 3
      name Spine_dum
      direction 0.000000 1.000000 0.000000
      length 6.068208
      axis 0.0 0.0 0.0 xyz
   end
   begin
      id 4
      name RightUpLeg
      direction 0.000000 -1.000000 0.000000
      length 16.405774
      axis 0.0 0.0 0.0 xyz
      dof rx ry rz
   end
   begin
      id 5
      name RightLeg
      direction 0.000000 -1.000000 0.000000
      length 14.644143
      axis 0.0 0.0 0.0 xyz
      dof rx ry rz
   end
   begin
      id 6
      name RightFoot
      direction 0.000000 -0.258819 0.965926
      length 5.806150
      axis 15.0 0.0 0.0 xyz
      dof rx ry rz
   end
   begin
      id 7
      name RightToeBase
      direction 0.000000 0.000000 1.000000
      length 2.952750
      axis 0.0 0.0 0.0 xyz
      dof rx ry rz
   end
   begin
      id 8
      name LeftUpLeg
      direction 0.000000 -1.000000 0.000000
      length 16.405774
      axis 0.0 0.0 0.0 xyz
      dof rx ry rz
   end
   begin
      id 9
      name LeftLeg
      direction 0.000000 -1.000000 0.000000
      length 14.644143
      axis 0.0 0.0 0.0 xyz
      dof rx ry rz
   end
   begin
      id 10
      name LeftFoot
      direction 0.000000 -0.258819 0.965926
      length 5.806150
      axis 15.0 0.0 0.0 xyz
      dof rx ry rz
   end
   begin
      id 11
      name LeftToeBase
      direction 0.000000 0.000000 1.000000
      length 2.952750
      axis 0.0 0.0 0.0 xyz
      dof rx ry rz
   end
   begin
      id 12
      name Spine
      direction 0.000000 1.000000 0.000000
      length 0.000000
      axis 0.0 0.0 0.0 xyz
      dof rx ry rz
   end
   begin
      id 13
      name Spine_dum1
      direction 0.000000 1.000000 0.000000
      length 10.013923
      axis 0.0 0.0 0.0 xyz
   end
   begin
      id 14
      name Spine_dum2
      direction 0.000000 1.000000 0.000000
      length 10.013923
      axis 0.0 0.0 0.0 xyz
   end
   begin
      id 15
      name Spine_dum3
      direction 0.000000 1.000000 0.000000
      length 15.777476
      axis 0.0 0.0 0.0 xyz
   end
   begin
      id 16
      name RightShoulder
      direction -1.000000 0.000000 0.000000
      length 7.190220
      axis 0.0 0.0 90.0 xyz
      dof rx ry rz
   end
   begin
      id 17
      name RightArm
      direction -1.000000 0.000000 0.000000
      length 10.177469
      axis 0.0 0.0 90.0 xyz
      dof rx ry rz
   end
   begin
      id 18
      name RightForeArm
      direction -1.000000 0.000000 0.000000
      length 8.392114
      axis 0.0 0.0 90.0 xyz
      dof ry rz rx
   end
   begin
      id 19
      name RightHand
      direction -1.000000 0.000000 0.000000
      length 0.000000
      axis 0.0 0.0 90.0 xyz
      dof rx ry rz
   end
   begin
      id 20
      name RightHand_dum1
      direction -1.000000 0.000000 0.000000
      length 3.937000
      axis 0.0 0.0 90.0 xyz
   end
   begin
      id 21
      name RightHand_dum2
      direction 0.000000 0.000000 0.000000
      length 0.000000
      axis 0.0 0.0 90.0 xyz
   end
   begin
      id 22
      name RightHandThumb1
      direction 0.000000 0.000000 1.000000
      length 3.937000
      axis 0.0 0.0 90.0 xyz
      dof rx rz ry
   end
   begin
      id 23
      name LeftShoulder
      direction 1.000000 0.000000 0.000000
      length 7.190220
      axis 0.0 0.0 -90.0 xyz
      dof rx ry rz
   end
   begin
      id 24
      name LeftArm
      direction 1.000000 0.000000 0.000000
      length 10.177469
      axis 0.0 0.0 -90.0 xyz
      dof rx ry rz
   end
   begin
      id 25
      name LeftForeArm
      direction 1.000000 0.000000 0.000000
      length 8.392114
      axis 0.0 0.0 -90.0 xyz
      dof ry rz rx
   end
   begin
      id 26
      name LeftHand
      direction 1.000000 0.000000 0.000000
      length 0.000000
      axis 0.0 0.0 -90.0 xyz
      dof rx ry rz
   end
   begin
      id 27
      name LeftHand_dum1
      direction 1.000000 0.000000 0.000000
      length 3.937000
      axis 0.0 0.0 -90.0 xyz
   end
   begin
      id 28
      name LeftHand_dum2
      direction 0.000000 0.000000 0.000000
      length 0.000000
      axis 0.0 0.0 -90.0 xyz
   end
   begin
      id 29
      name LeftHandThumb1
      direction 0.000000 0.000000 1.000000
      length 3.937000
      axis 0.0 0.0 -90.0 xyz
      dof rx rz ry
   end
   begin
      id 30
      name Head
      direction 0.000000 1.000000 0.000000
      length 4.527550
      axis 0.0 0.0 0.0 xyz
      dof rx ry rz
   end
:hierarchy
   begin
      root RightUpLeg_dum LeftUpLeg_dum Spine_dum
      RightUpLeg_dum RightUpLeg
      LeftUpLeg_dum LeftUpLeg
      Spine_dum Spine
      RightUpLeg RightLeg
      RightLeg RightFoot
      RightFoot RightToeBase
      LeftUpLeg LeftLeg
      LeftLeg LeftFoot
      LeftFoot LeftToeBase
      Spine Spine_dum1 Spine_dum2 Spine_dum3
      Spine_dum1 RightShoulder
      Spine_dum2 LeftShoulder
      Spine_dum3 Head
      RightShoulder RightArm
      RightArm RightForeArm
      RightForeArm RightHand
      RightHand RightHand_dum1 RightHand_dum2
      RightHand_dum2 RightHandThumb1
      LeftShoulder LeftArm
      LeftArm LeftForeArm
      LeftForeArm LeftHand
      LeftHand LeftHand_dum1 LeftHand_dum2
      LeftHand_dum2 LeftHandThumb1
   end

# File created by Blade
# Date/Time:  Thu Jan 22 19:18:16 2015
# Frame Rate: 120.000 fps
#------------------------------------------------------
:FULLY-SPECIFIED
:DEGREES
209
root -1.695849 32.932932 -0.029803 10.182468 -2.945084 1.725198
RightUpLeg -3.899803 -9.679012 -5.826725
RightLeg 2.300949 -0.000000 -0.000000
RightFoot -11.809741 -0.852668 9.105510
RightToeBase 3.001817 -0.000000 -0.000000
LeftUpLeg -6.832169 10.486685 10.021759
LeftLeg 10.199005 -0.000000 -0.000000
LeftFoot -9.609732 1.454838 -22.458689
LeftToeBase 4.771702 -0.000000 -0.000000
Spine -8.669099 -3.197336 1.840098
RightShoulder -18.367342 -12.651929 -25.530794
RightArm 22.407192 25.990624 39.400666
RightForeArm -16.959473 -0.000000 15.517377
RightHand 13.270123 -0.000000 6.356592
RightHandThumb1 -24.326973 -0.000000 -32.862282
LeftShoulder -23.366173 7.104962 27.964718
LeftArm 16.893720 -28.372141 -39.123444
LeftForeArm 23.559935 -0.000000 2.179483
LeftHand -1.351718 -0.000000 -8.461374
LeftHandThumb1 -26.253704 0.000000 33.147579
Head -0.996203 2.650223 -1.237486
210
root -1.698580 32.933453 -0.013403 10.320652 -3.045050 1.646610
RightUpLeg -3.988525 -9.063177 -5.959677
RightLeg 2.293630 -0.000000 -0.000000
RightFoot -11.667455 -0.515028 9.235773
RightToeBase 2.856544 -0.000000 -0.000000
LeftUpLeg -6.832487 9.847677 10.473884
LeftLeg 10.107657 -0.000000 -0.000000
LeftFoot -9.288738 0.995037 -22.073393
LeftToeBase 4.419501 -0.000000 -0.000000
Spine -8.770011 -3.166721 2.053902
RightShoulder -18.372992 -12.617271 -25.576919
RightArm 22.313875 26.040656 39.294672
RightForeArm -16.828045 -0.000000 15.582944
RightHand 13.282915 -0.000000 6.136124
RightHandThumb1 -24.326973 -0.000000 -32.862282
LeftShoulder -23.382500 7.060628 27.899749
LeftArm 16.721657 -28.437515 -39.052509
LeftForeArm 23.449070 -0.000000 2.198542
LeftHand -1.236401 0.000000 -8.439585
LeftHandThumb1 -26.253704 0.000000 33.147579
Head -1.116719 2.714145 -1.351128
211
root -1.699767 32.934302 -0.002480 10.453150 -3.118943 1.536718
RightUpLeg -4.081729 -8.447962 -6.062868
RightLeg 2.292114 -0.000000 -0.000000
RightFoot -11.474248 -0.200144 9.327343
RightToeBase 2.534276 -0.000000 -0.000000
LeftUpLeg -6.846156 9.139806 10.979071
LeftLeg 10.026104 -0.000000 -0.000000
LeftFoot -8.993353 0.453809 -21.869351
LeftToeBase 4.185487 -0.000000 -0.000000
Spine -8.860994 -3.186951 2.326521
RightShoulder -18.333172 -12.620618 -25.642565
RightArm 22.259145 26.214102 39.273521
RightForeArm -16.753140 -0.000000 15.676091
RightHand 13.304262 0.000000 6.030964
RightHandThumb1 -24.326973 -0.000000 -32.862282
LeftShoulder -23.480168 7.232182 27.772626
LeftArm 16.758934 -28.575525 -39.138693
LeftForeArm 23.260562 0.000000 2.248357
LeftHand -1.263753 -0.000000 -8.369710
LeftHandThumb1 -26.253704 0.000000 33.147579
Head -1.179064 2.771878 -1.480666
212
root -1.698970 32.932878 0.009565 10.569373 -3.160566 1.453982
RightUpLeg -4.142381 -7.858241 -6.196205
RightLeg 2.273656 -0.000000 -0.000000
RightFoot -11.313477 0.123636 9.398977
RightToeBase 2.288356 -0.000000 -0.000000
LeftUpLeg -6.840376 8.357490 11.454886
LeftLeg 9.899077 -0.000000 -0.000000
LeftFoot -8.721597 -0.045116 -21.724139
LeftToeBase 4.089574 -0.000000 -0.000000
Spine -8.924715 -3.182740 2.556528
RightShoulder -18.359267 -12.605104 -25.664164
RightArm 22.179203 26.287809 39.159106
RightForeArm -16.595317 0.000000 15.733366
RightHand 13.431745 -0.000000 6.016991
RightHandThumb1 -24.326973 -0.000000 -32.862282
LeftShoulder -23.490113 7.232325 27.725104
LeftArm 16.662870 -28.732908 -39.190433
LeftForeArm 23.212649 -0.000000 2.307486
LeftHand -1.214024 -0.000000 -8.298420
LeftHandThumb1 -26.253704 0.000000 33.147579
Head -1.301459 2.785865 -1.611960
